<svg width="200" height="192" viewBox="0 0 200 192" fill="none" xmlns="http://www.w3.org/2000/svg">
<g opacity="0.7" clip-path="url(#clip0_16_1031)">
<mask id="mask0_16_1031" style="mask-type:luminance" maskUnits="userSpaceOnUse" x="0" y="0" width="200" height="201">
<path d="M200 0.5H0V200.5H200V0.5Z" fill="white"/>
</mask>
<g mask="url(#mask0_16_1031)">
<path d="M67 134.5L16 191.5" stroke="#023909" stroke-width="1.5"/>
<path d="M15.0086 191.597L9.67999 211.68" stroke="#023909" stroke-width="1.5"/>
<path d="M15.0085 191.597L37.2714 187.394" stroke="#023909" stroke-width="1.5"/>
<path d="M15.0085 191.597L35.5028 168.534" stroke="#023909" stroke-width="1.5"/>
<path d="M15.0086 191.597L-10.5114 209.76" stroke="#023909" stroke-width="1.5"/>
<path d="M35.5028 168.534L37.2714 187.394" stroke="#023909" stroke-width="1.5"/>
<path d="M37.2714 187.394L42.1571 207.317" stroke="#023909" stroke-width="1.5"/>
<path d="M37.2714 187.394L58.6171 190.68" stroke="#023909" stroke-width="1.5"/>
<path d="M37.2714 187.394L60.52 206.871" stroke="#023909" stroke-width="1.5"/>
<path d="M42.1571 207.317L58.6171 190.68" stroke="#023909" stroke-width="1.5"/>
<path d="M75 117.5L92 118.5" stroke="#023909" stroke-width="1.5"/>
<path d="M67.6971 133.489L67.9229 162.071" stroke="#023909" stroke-width="1.5"/>
<path d="M67.9229 162.071L84.1829 160.717" stroke="#023909" stroke-width="1.5"/>
<path d="M67.9229 162.071L83.9657 182.706" stroke="#023909" stroke-width="1.5"/>
<path d="M67.9228 162.071L58.6171 190.68" stroke="#023909" stroke-width="1.5"/>
<path d="M67.9228 162.071L35.5028 168.534" stroke="#023909" stroke-width="1.5"/>
<path d="M58.6171 190.68L60.52 206.871" stroke="#023909" stroke-width="1.5"/>
<path d="M58.6171 190.68L83.9657 182.706" stroke="#023909" stroke-width="1.5"/>
<path d="M76 117.5L68 133.5" stroke="#023909" stroke-width="1.5"/>
<path d="M91.9343 118.148L113.563 119.114" stroke="#023909" stroke-width="1.5"/>
<path d="M91.9343 118.148L67.6971 133.488" stroke="#023909" stroke-width="1.5"/>
<path d="M91.9343 118.148L115.454 134.694" stroke="#023909" stroke-width="1.5"/>
<path d="M84.1828 160.717L83.9657 182.706" stroke="#023909" stroke-width="1.5"/>
<path d="M84.1829 160.717L67.6971 133.489" stroke="#023909" stroke-width="1.5"/>
<path d="M84.1829 160.717L107.706 188.723" stroke="#023909" stroke-width="1.5"/>
<path d="M83.9657 182.706L107.706 188.723" stroke="#023909" stroke-width="1.5"/>
<path d="M86.1086 210.511L83.9657 182.706" stroke="#023909" stroke-width="1.5"/>
<path d="M86.1086 210.511L107.706 188.723" stroke="#023909" stroke-width="1.5"/>
<path d="M86.1086 210.511L58.6171 190.68" stroke="#023909" stroke-width="1.5"/>
<path d="M113.563 119.114L115.454 134.694" stroke="#023909" stroke-width="1.5"/>
<path d="M113.563 119.114L132.614 119.094" stroke="#023909" stroke-width="1.5"/>
<path d="M115.454 134.694L132.614 119.094" stroke="#023909" stroke-width="1.5"/>
<path d="M115.454 134.694L139.874 140.94" stroke="#023909" stroke-width="1.5"/>
<path d="M107.706 188.723L108.569 218.566" stroke="#023909" stroke-width="1.5"/>
<path d="M107.706 188.723L142.691 181.854" stroke="#023909" stroke-width="1.5"/>
<path d="M154 63L169 64.5" stroke="#023909" stroke-width="1.5"/>
<path d="M153.5 63L133.354 88.8143" stroke="#023909" stroke-width="1.5"/>
<path d="M133.354 88.8142L161.28 94.0856" stroke="#023909" stroke-width="1.5"/>
<path d="M133.354 88.8142L132.614 119.094" stroke="#023909" stroke-width="1.5"/>
<path d="M133.354 88.8142L113.563 119.114" stroke="#023909" stroke-width="1.5"/>
<path d="M132.614 119.094L139.874 140.94" stroke="#023909" stroke-width="1.5"/>
<path d="M139.874 140.94L156.974 134.397" stroke="#023909" stroke-width="1.5"/>
<path d="M139.874 140.94L132.46 158.12" stroke="#023909" stroke-width="1.5"/>
<path d="M139.874 140.94L160.649 118.06" stroke="#023909" stroke-width="1.5"/>
<path d="M139.874 140.94L157.191 168.463" stroke="#023909" stroke-width="1.5"/>
<path d="M142.691 181.854L157.38 187.769" stroke="#023909" stroke-width="1.5"/>
<path d="M142.691 181.854L157.191 168.463" stroke="#023909" stroke-width="1.5"/>
<path d="M142.691 181.854L132.46 158.12" stroke="#023909" stroke-width="1.5"/>
<path d="M140.086 217.92L157.38 187.769" stroke="#023909" stroke-width="1.5"/>
<path d="M161.28 94.0857L160.649 118.06" stroke="#023909" stroke-width="1.5"/>
<path d="M161.28 94.0856L183.209 83.4771" stroke="#023909" stroke-width="1.5"/>
<path d="M161.28 94.0857L185.234 108.557" stroke="#023909" stroke-width="1.5"/>
<path d="M161.28 94.0857L184.991 66.7515" stroke="#023909" stroke-width="1.5"/>
<path d="M161.28 94.0857L132.614 119.094" stroke="#023909" stroke-width="1.5"/>
<path d="M160.649 118.06L156.974 134.397" stroke="#023909" stroke-width="1.5"/>
<path d="M160.649 118.06L185.234 108.557" stroke="#023909" stroke-width="1.5"/>
<path d="M160.649 118.06L132.614 119.094" stroke="#023909" stroke-width="1.5"/>
<path d="M160.649 118.06L133.354 88.8142" stroke="#023909" stroke-width="1.5"/>
<path d="M156.974 134.397L132.614 119.094" stroke="#023909" stroke-width="1.5"/>
<path d="M157.191 168.463L157.38 187.769" stroke="#023909" stroke-width="1.5"/>
<path d="M157.191 168.463L132.46 158.12" stroke="#023909" stroke-width="1.5"/>
<path d="M157.191 168.463L156.974 134.397" stroke="#023909" stroke-width="1.5"/>
<path d="M157.191 168.463L190.189 159.023" stroke="#023909" stroke-width="1.5"/>
<path d="M157.38 187.769L188.089 183.491" stroke="#023909" stroke-width="1.5"/>
<path d="M186.46 14.52L184.131 42.0229" stroke="#023909" stroke-width="1.5"/>
<path d="M186.46 14.52L218.431 15.9543" stroke="#023909" stroke-width="1.5"/>
<path d="M186.46 14.52L207.054 -10.6914" stroke="#023909" stroke-width="1.5"/>
<path d="M184.131 42.0229L184.991 66.7515" stroke="#023909" stroke-width="1.5"/>
<path d="M184 42.5L155 62.5" stroke="#023909" stroke-width="1.5"/>
<path d="M184.131 42.0229L211.829 57.2687" stroke="#023909" stroke-width="1.5"/>
<path d="M184.991 66.7515L183.209 83.4772" stroke="#023909" stroke-width="1.5"/>
<path d="M183.209 83.4771L185.234 108.557" stroke="#023909" stroke-width="1.5"/>
<path d="M183.209 83.4771L217.257 93.0828" stroke="#023909" stroke-width="1.5"/>
<path d="M183.209 83.4771L211.829 57.2686" stroke="#023909" stroke-width="1.5"/>
<path d="M183.209 83.4771L160.649 118.06" stroke="#023909" stroke-width="1.5"/>
<path d="M185.234 108.557L212.346 117.126" stroke="#023909" stroke-width="1.5"/>
<path d="M185.234 108.557L206.611 136.866" stroke="#023909" stroke-width="1.5"/>
<path d="M190.189 159.023L188.089 183.492" stroke="#023909" stroke-width="1.5"/>
<path d="M190.189 159.023L206.611 136.866" stroke="#023909" stroke-width="1.5"/>
<path d="M190.189 159.023L216.86 166.966" stroke="#023909" stroke-width="1.5"/>
<path d="M190.189 159.023L206.434 188.66" stroke="#023909" stroke-width="1.5"/>
<path d="M190.189 159.023L156.974 134.397" stroke="#023909" stroke-width="1.5"/>
<path d="M188.089 183.491L206.434 188.66" stroke="#023909" stroke-width="1.5"/>
<path d="M188.089 183.491L193.214 210.069" stroke="#023909" stroke-width="1.5"/>
<path d="M193.214 210.068L206.434 188.66" stroke="#023909" stroke-width="1.5"/>
<path d="M218.431 15.9543L184.131 42.0229" stroke="#023909" stroke-width="1.5"/>
<path d="M218.431 15.9543L183.723 -17.5371" stroke="#023909" stroke-width="1.5"/>
<path d="M218.431 15.9544L186.5 14" stroke="#023909" stroke-width="1.5"/>
<path d="M211.829 57.2686L184.991 66.7514" stroke="#023909" stroke-width="1.5"/>
<path d="M217.257 93.0828L185.234 108.557" stroke="#023909" stroke-width="1.5"/>
<path d="M212.346 117.126L183.209 83.4771" stroke="#023909" stroke-width="1.5"/>
<path d="M212.346 117.126L190.189 159.023" stroke="#023909" stroke-width="1.5"/>
<path d="M211.297 212.906L188.089 183.491" stroke="#023909" stroke-width="1.5"/>
<path d="M211.297 212.906L190.189 159.023" stroke="#023909" stroke-width="1.5"/>
<path d="M211.297 212.906L157.38 187.769" stroke="#023909" stroke-width="1.5"/>
<path d="M15.0086 193.026C15.7975 193.026 16.4371 192.386 16.4371 191.597C16.4371 190.808 15.7975 190.168 15.0086 190.168C14.2196 190.168 13.58 190.808 13.58 191.597C13.58 192.386 14.2196 193.026 15.0086 193.026Z" fill="#023909"/>
<path d="M35.5029 169.963C36.2918 169.963 36.9314 169.323 36.9314 168.534C36.9314 167.745 36.2918 167.106 35.5029 167.106C34.7139 167.106 34.0743 167.745 34.0743 168.534C34.0743 169.323 34.7139 169.963 35.5029 169.963Z" fill="#023909"/>
<path d="M37.2714 188.823C38.0604 188.823 38.7 188.183 38.7 187.394C38.7 186.605 38.0604 185.966 37.2714 185.966C36.4824 185.966 35.8428 186.605 35.8428 187.394C35.8428 188.183 36.4824 188.823 37.2714 188.823Z" fill="#023909"/>
<path d="M67.6971 134.917C68.4861 134.917 69.1257 134.278 69.1257 133.489C69.1257 132.7 68.4861 132.06 67.6971 132.06C66.9081 132.06 66.2686 132.7 66.2686 133.489C66.2686 134.278 66.9081 134.917 67.6971 134.917Z" fill="#023909"/>
<path d="M67.9228 163.5C68.7118 163.5 69.3514 162.86 69.3514 162.071C69.3514 161.282 68.7118 160.643 67.9228 160.643C67.1339 160.643 66.4943 161.282 66.4943 162.071C66.4943 162.86 67.1339 163.5 67.9228 163.5Z" fill="#023909"/>
<path d="M58.6171 192.109C59.4061 192.109 60.0457 191.469 60.0457 190.68C60.0457 189.891 59.4061 189.251 58.6171 189.251C57.8282 189.251 57.1886 189.891 57.1886 190.68C57.1886 191.469 57.8282 192.109 58.6171 192.109Z" fill="#023909"/>
<path d="M91.9343 119.577C92.7233 119.577 93.3628 118.938 93.3628 118.149C93.3628 117.36 92.7233 116.72 91.9343 116.72C91.1453 116.72 90.5057 117.36 90.5057 118.149C90.5057 118.938 91.1453 119.577 91.9343 119.577Z" fill="#023909"/>
<path d="M84.1828 162.146C84.9718 162.146 85.6114 161.506 85.6114 160.717C85.6114 159.928 84.9718 159.289 84.1828 159.289C83.3939 159.289 82.7543 159.928 82.7543 160.717C82.7543 161.506 83.3939 162.146 84.1828 162.146Z" fill="#023909"/>
<path d="M83.9657 184.134C84.7547 184.134 85.3943 183.495 85.3943 182.706C85.3943 181.917 84.7547 181.277 83.9657 181.277C83.1767 181.277 82.5371 181.917 82.5371 182.706C82.5371 183.495 83.1767 184.134 83.9657 184.134Z" fill="#023909"/>
<path d="M113.563 120.543C114.352 120.543 114.991 119.903 114.991 119.114C114.991 118.325 114.352 117.686 113.563 117.686C112.774 117.686 112.134 118.325 112.134 119.114C112.134 119.903 112.774 120.543 113.563 120.543Z" fill="#023909"/>
<path d="M115.454 136.123C116.243 136.123 116.883 135.483 116.883 134.694C116.883 133.905 116.243 133.266 115.454 133.266C114.665 133.266 114.026 133.905 114.026 134.694C114.026 135.483 114.665 136.123 115.454 136.123Z" fill="#023909"/>
<path d="M107.706 190.151C108.495 190.151 109.134 189.512 109.134 188.723C109.134 187.934 108.495 187.294 107.706 187.294C106.917 187.294 106.277 187.934 106.277 188.723C106.277 189.512 106.917 190.151 107.706 190.151Z" fill="#023909"/>
<path d="M133.354 90.2429C134.143 90.2429 134.783 89.6033 134.783 88.8143C134.783 88.0253 134.143 87.3857 133.354 87.3857C132.565 87.3857 131.926 88.0253 131.926 88.8143C131.926 89.6033 132.565 90.2429 133.354 90.2429Z" fill="#023909"/>
<path d="M132.614 120.523C133.403 120.523 134.043 119.883 134.043 119.094C134.043 118.305 133.403 117.666 132.614 117.666C131.825 117.666 131.186 118.305 131.186 119.094C131.186 119.883 131.825 120.523 132.614 120.523Z" fill="#023909"/>
<path d="M139.874 142.369C140.663 142.369 141.303 141.729 141.303 140.94C141.303 140.151 140.663 139.511 139.874 139.511C139.085 139.511 138.446 140.151 138.446 140.94C138.446 141.729 139.085 142.369 139.874 142.369Z" fill="#023909"/>
<path d="M132.46 159.549C133.249 159.549 133.889 158.909 133.889 158.12C133.889 157.331 133.249 156.691 132.46 156.691C131.671 156.691 131.031 157.331 131.031 158.12C131.031 158.909 131.671 159.549 132.46 159.549Z" fill="#023909"/>
<path d="M142.691 183.283C143.48 183.283 144.12 182.643 144.12 181.854C144.12 181.065 143.48 180.426 142.691 180.426C141.902 180.426 141.263 181.065 141.263 181.854C141.263 182.643 141.902 183.283 142.691 183.283Z" fill="#023909"/>
<path d="M161.28 95.5144C162.069 95.5144 162.709 94.8748 162.709 94.0858C162.709 93.2968 162.069 92.6572 161.28 92.6572C160.491 92.6572 159.851 93.2968 159.851 94.0858C159.851 94.8748 160.491 95.5144 161.28 95.5144Z" fill="#023909"/>
<path d="M160.649 119.488C161.438 119.488 162.077 118.849 162.077 118.06C162.077 117.271 161.438 116.631 160.649 116.631C159.86 116.631 159.22 117.271 159.22 118.06C159.22 118.849 159.86 119.488 160.649 119.488Z" fill="#023909"/>
<path d="M156.974 135.826C157.763 135.826 158.403 135.186 158.403 134.397C158.403 133.608 157.763 132.969 156.974 132.969C156.185 132.969 155.546 133.608 155.546 134.397C155.546 135.186 156.185 135.826 156.974 135.826Z" fill="#023909"/>
<path d="M157.191 169.891C157.98 169.891 158.62 169.252 158.62 168.463C158.62 167.674 157.98 167.034 157.191 167.034C156.402 167.034 155.763 167.674 155.763 168.463C155.763 169.252 156.402 169.891 157.191 169.891Z" fill="#023909"/>
<path d="M157.38 189.197C158.169 189.197 158.809 188.558 158.809 187.769C158.809 186.98 158.169 186.34 157.38 186.34C156.591 186.34 155.951 186.98 155.951 187.769C155.951 188.558 156.591 189.197 157.38 189.197Z" fill="#023909"/>
<path d="M186.46 15.9485C187.249 15.9485 187.889 15.3089 187.889 14.5199C187.889 13.7309 187.249 13.0913 186.46 13.0913C185.671 13.0913 185.031 13.7309 185.031 14.5199C185.031 15.3089 185.671 15.9485 186.46 15.9485Z" fill="#023909"/>
<path d="M184.131 43.4514C184.92 43.4514 185.56 42.8118 185.56 42.0228C185.56 41.2338 184.92 40.5942 184.131 40.5942C183.342 40.5942 182.703 41.2338 182.703 42.0228C182.703 42.8118 183.342 43.4514 184.131 43.4514Z" fill="#023909"/>
<path d="M184.991 68.1799C185.78 68.1799 186.42 67.5403 186.42 66.7513C186.42 65.9623 185.78 65.3228 184.991 65.3228C184.202 65.3228 183.563 65.9623 183.563 66.7513C183.563 67.5403 184.202 68.1799 184.991 68.1799Z" fill="#023909"/>
<path d="M183.209 84.9057C183.998 84.9057 184.637 84.2661 184.637 83.4772C184.637 82.6882 183.998 82.0486 183.209 82.0486C182.42 82.0486 181.78 82.6882 181.78 83.4772C181.78 84.2661 182.42 84.9057 183.209 84.9057Z" fill="#023909"/>
<path d="M185.234 109.986C186.023 109.986 186.663 109.346 186.663 108.557C186.663 107.768 186.023 107.129 185.234 107.129C184.445 107.129 183.806 107.768 183.806 108.557C183.806 109.346 184.445 109.986 185.234 109.986Z" fill="#023909"/>
<path d="M190.189 160.451C190.978 160.451 191.617 159.812 191.617 159.023C191.617 158.234 190.978 157.594 190.189 157.594C189.4 157.594 188.76 158.234 188.76 159.023C188.76 159.812 189.4 160.451 190.189 160.451Z" fill="#023909"/>
<path d="M188.089 184.92C188.878 184.92 189.517 184.28 189.517 183.491C189.517 182.702 188.878 182.063 188.089 182.063C187.3 182.063 186.66 182.702 186.66 183.491C186.66 184.28 187.3 184.92 188.089 184.92Z" fill="#023909"/>
<path d="M91.8943 164.503L110.663 182.637" stroke="#036F11" stroke-width="1.5"/>
<path d="M91.8943 164.503L118.137 165.149" stroke="#036F11" stroke-width="1.5"/>
<path d="M91.8943 164.503L82.1829 139.14" stroke="#036F11" stroke-width="1.5"/>
<path d="M91.8943 164.503L90.4914 192.443" stroke="#036F11" stroke-width="1.5"/>
<path d="M91.8943 164.503L112.377 137.703" stroke="#036F11" stroke-width="1.5"/>
<path d="M90.4914 192.443L110.663 182.637" stroke="#036F11" stroke-width="1.5"/>
<path d="M118.137 165.148L110.663 182.637" stroke="#036F11" stroke-width="1.5"/>
<path d="M118.137 165.148L137.849 168.488" stroke="#036F11" stroke-width="1.5"/>
<path d="M110.663 182.637L136.391 185.389" stroke="#036F11" stroke-width="1.5"/>
<path d="M110.663 182.637L137.849 168.489" stroke="#036F11" stroke-width="1.5"/>
<path d="M110.663 182.637L117.837 215.837" stroke="#036F11" stroke-width="1.5"/>
<path d="M117.837 215.837L136.391 185.389" stroke="#036F11" stroke-width="1.5"/>
<path d="M165.297 190.203L186.446 184.114" stroke="#036F11" stroke-width="1.5"/>
<path d="M165.297 190.203L159.963 215.62" stroke="#036F11" stroke-width="1.5"/>
<path d="M165.297 190.203L136.391 185.389" stroke="#036F11" stroke-width="1.5"/>
<path d="M165.297 190.203L160.674 158.426" stroke="#036F11" stroke-width="1.5"/>
<path d="M165.297 190.203L137.849 168.489" stroke="#036F11" stroke-width="1.5"/>
<path d="M165.297 190.203L134.609 209.3" stroke="#036F11" stroke-width="1.5"/>
<path d="M188.654 43.3171L190.414 64.9057" stroke="#036F11" stroke-width="1.5"/>
<path d="M188.654 43.3171L168.46 64.8629" stroke="#036F11" stroke-width="1.5"/>
<path d="M188.654 43.3171L207.183 66.5457" stroke="#036F11" stroke-width="1.5"/>
<path d="M181.269 137.974L159.031 143.263" stroke="#036F11" stroke-width="1.5"/>
<path d="M181.269 137.974L190.18 160.08" stroke="#036F11" stroke-width="1.5"/>
<path d="M181.269 137.974L160.674 158.426" stroke="#036F11" stroke-width="1.5"/>
<path d="M181.269 137.974L190.003 108.231" stroke="#036F11" stroke-width="1.5"/>
<path d="M181.269 137.974L166.109 109.897" stroke="#036F11" stroke-width="1.5"/>
<path d="M207.183 66.5458L190.414 64.9058" stroke="#036F11" stroke-width="1.5"/>
<path d="M207.183 66.5456L168.46 64.8628" stroke="#036F11" stroke-width="1.5"/>
<path d="M207.183 66.5457L190.003 108.231" stroke="#036F11" stroke-width="1.5"/>
<path d="M-10.8772 207.883L43.0743 183.431" stroke="#036F11" stroke-width="1.5"/>
<path d="M-10.8772 207.883L56.6285 166.934" stroke="#036F11" stroke-width="1.5"/>
<path d="M43.0743 183.431L56.6286 166.934" stroke="#036F11" stroke-width="1.5"/>
<path d="M43.0743 183.431L33.52 207.263" stroke="#036F11" stroke-width="1.5"/>
<path d="M56.6285 166.934L91.8943 164.503" stroke="#036F11" stroke-width="1.5"/>
<path d="M56.7657 211.046L43.0743 183.431" stroke="#036F11" stroke-width="1.5"/>
<path d="M82.1829 139.14L112.377 137.703" stroke="#036F11" stroke-width="1.5"/>
<path d="M112.377 137.703L118.137 165.149" stroke="#036F11" stroke-width="1.5"/>
<path d="M112.377 137.703L142.889 112.94" stroke="#036F11" stroke-width="1.5"/>
<path d="M112.377 137.703L137.849 168.489" stroke="#036F11" stroke-width="1.5"/>
<path d="M112.377 137.703L110.663 182.637" stroke="#036F11" stroke-width="1.5"/>
<path d="M142.889 112.94L166.109 109.897" stroke="#036F11" stroke-width="1.5"/>
<path d="M142.889 112.94L159.031 143.263" stroke="#036F11" stroke-width="1.5"/>
<path d="M142.889 112.94L162.629 84.4084" stroke="#036F11" stroke-width="1.5"/>
<path d="M137.849 168.489L136.391 185.389" stroke="#036F11" stroke-width="1.5"/>
<path d="M137.849 168.489L160.674 158.426" stroke="#036F11" stroke-width="1.5"/>
<path d="M136.391 185.389L134.609 209.3" stroke="#036F11" stroke-width="1.5"/>
<path d="M134.609 209.3L110.663 182.637" stroke="#036F11" stroke-width="1.5"/>
<path d="M168.46 64.8628L162.629 84.4085" stroke="#036F11" stroke-width="1.5"/>
<path d="M168.46 64.8628L190.414 64.9056" stroke="#036F11" stroke-width="1.5"/>
<path d="M162.629 84.4084L166.109 109.897" stroke="#036F11" stroke-width="1.5"/>
<path d="M166.109 109.897L190.003 108.231" stroke="#036F11" stroke-width="1.5"/>
<path d="M159.031 143.263L160.674 158.426" stroke="#036F11" stroke-width="1.5"/>
<path d="M159.031 143.263L137.849 168.489" stroke="#036F11" stroke-width="1.5"/>
<path d="M159.031 143.263L166.109 109.897" stroke="#036F11" stroke-width="1.5"/>
<path d="M159.031 143.263L190.18 160.08" stroke="#036F11" stroke-width="1.5"/>
<path d="M160.674 158.426L190.18 160.08" stroke="#036F11" stroke-width="1.5"/>
<path d="M159.963 215.62L136.391 185.389" stroke="#036F11" stroke-width="1.5"/>
<path d="M190.414 64.9058L210.626 89.3572" stroke="#036F11" stroke-width="1.5"/>
<path d="M190.003 108.231L206.849 118.326" stroke="#036F11" stroke-width="1.5"/>
<path d="M190.003 108.231L210.626 89.3572" stroke="#036F11" stroke-width="1.5"/>
<path d="M190.18 160.08L207.226 159.997" stroke="#036F11" stroke-width="1.5"/>
<path d="M190.18 160.08L186.446 184.114" stroke="#036F11" stroke-width="1.5"/>
<path d="M190.18 160.08L215.006 185.054" stroke="#036F11" stroke-width="1.5"/>
<path d="M186.446 184.114L215.006 185.054" stroke="#036F11" stroke-width="1.5"/>
<path d="M186.446 184.114L207.226 159.997" stroke="#036F11" stroke-width="1.5"/>
<path d="M186.446 184.114L160.674 158.426" stroke="#036F11" stroke-width="1.5"/>
<path d="M209.249 12.0085L192.854 -5.78296" stroke="#036F11" stroke-width="1.5"/>
<path d="M209.249 12.0085L188.654 43.3171" stroke="#036F11" stroke-width="1.5"/>
<path d="M216.237 132.28L181.269 137.974" stroke="#036F11" stroke-width="1.5"/>
<path d="M216.237 132.28L190.003 108.231" stroke="#036F11" stroke-width="1.5"/>
<path d="M216.237 132.28L190.18 160.08" stroke="#036F11" stroke-width="1.5"/>
<path d="M217.034 214.017L186.446 184.114" stroke="#036F11" stroke-width="1.5"/>
<path d="M217.034 214.017L165.297 190.203" stroke="#036F11" stroke-width="1.5"/>
<path d="M91.8943 171.646C95.8392 171.646 99.0371 168.448 99.0371 164.503C99.0371 160.558 95.8392 157.36 91.8943 157.36C87.9494 157.36 84.7514 160.558 84.7514 164.503C84.7514 168.448 87.9494 171.646 91.8943 171.646Z" fill="url(#paint0_radial_16_1031)"/>
<path d="M90.4914 199.586C94.4363 199.586 97.6343 196.388 97.6343 192.443C97.6343 188.498 94.4363 185.3 90.4914 185.3C86.5465 185.3 83.3486 188.498 83.3486 192.443C83.3486 196.388 86.5465 199.586 90.4914 199.586Z" fill="url(#paint1_radial_16_1031)"/>
<path d="M118.137 172.291C122.082 172.291 125.28 169.093 125.28 165.148C125.28 161.204 122.082 158.006 118.137 158.006C114.192 158.006 110.994 161.204 110.994 165.148C110.994 169.093 114.192 172.291 118.137 172.291Z" fill="url(#paint2_radial_16_1031)"/>
<path d="M110.663 189.78C114.608 189.78 117.806 186.582 117.806 182.637C117.806 178.692 114.608 175.494 110.663 175.494C106.718 175.494 103.52 178.692 103.52 182.637C103.52 186.582 106.718 189.78 110.663 189.78Z" fill="url(#paint3_radial_16_1031)"/>
<path d="M165.297 197.346C169.242 197.346 172.44 194.148 172.44 190.203C172.44 186.258 169.242 183.06 165.297 183.06C161.352 183.06 158.154 186.258 158.154 190.203C158.154 194.148 161.352 197.346 165.297 197.346Z" fill="url(#paint4_radial_16_1031)"/>
<path d="M188.654 50.46C192.599 50.46 195.797 47.2621 195.797 43.3172C195.797 39.3723 192.599 36.1743 188.654 36.1743C184.709 36.1743 181.511 39.3723 181.511 43.3172C181.511 47.2621 184.709 50.46 188.654 50.46Z" fill="url(#paint5_radial_16_1031)"/>
<path d="M181.269 145.117C185.213 145.117 188.411 141.919 188.411 137.974C188.411 134.03 185.213 130.832 181.269 130.832C177.324 130.832 174.126 134.03 174.126 137.974C174.126 141.919 177.324 145.117 181.269 145.117Z" fill="url(#paint6_radial_16_1031)"/>
<path d="M43.0743 184.86C43.8632 184.86 44.5028 184.22 44.5028 183.432C44.5028 182.643 43.8632 182.003 43.0743 182.003C42.2853 182.003 41.6457 182.643 41.6457 183.432C41.6457 184.22 42.2853 184.86 43.0743 184.86Z" fill="#049016"/>
<path d="M56.6286 168.363C57.4175 168.363 58.0571 167.723 58.0571 166.934C58.0571 166.145 57.4175 165.506 56.6286 165.506C55.8396 165.506 55.2 166.145 55.2 166.934C55.2 167.723 55.8396 168.363 56.6286 168.363Z" fill="#049016"/>
<path d="M82.1828 140.569C82.9718 140.569 83.6114 139.929 83.6114 139.14C83.6114 138.351 82.9718 137.711 82.1828 137.711C81.3939 137.711 80.7543 138.351 80.7543 139.14C80.7543 139.929 81.3939 140.569 82.1828 140.569Z" fill="#049016"/>
<path d="M112.377 139.131C113.166 139.131 113.806 138.492 113.806 137.703C113.806 136.914 113.166 136.274 112.377 136.274C111.588 136.274 110.949 136.914 110.949 137.703C110.949 138.492 111.588 139.131 112.377 139.131Z" fill="#049016"/>
<path d="M142.889 114.369C143.678 114.369 144.317 113.729 144.317 112.94C144.317 112.151 143.678 111.511 142.889 111.511C142.1 111.511 141.46 112.151 141.46 112.94C141.46 113.729 142.1 114.369 142.889 114.369Z" fill="#049016"/>
<path d="M137.849 169.917C138.638 169.917 139.277 169.278 139.277 168.489C139.277 167.7 138.638 167.06 137.849 167.06C137.06 167.06 136.42 167.7 136.42 168.489C136.42 169.278 137.06 169.917 137.849 169.917Z" fill="#049016"/>
<path d="M136.391 186.817C137.18 186.817 137.82 186.178 137.82 185.389C137.82 184.6 137.18 183.96 136.391 183.96C135.602 183.96 134.963 184.6 134.963 185.389C134.963 186.178 135.602 186.817 136.391 186.817Z" fill="#049016"/>
<path d="M168.46 66.2915C169.249 66.2915 169.889 65.6519 169.889 64.8629C169.889 64.0739 169.249 63.4343 168.46 63.4343C167.671 63.4343 167.031 64.0739 167.031 64.8629C167.031 65.6519 167.671 66.2915 168.46 66.2915Z" fill="#049016"/>
<path d="M162.629 85.8371C163.418 85.8371 164.057 85.1975 164.057 84.4086C164.057 83.6196 163.418 82.98 162.629 82.98C161.84 82.98 161.2 83.6196 161.2 84.4086C161.2 85.1975 161.84 85.8371 162.629 85.8371Z" fill="#049016"/>
<path d="M166.109 111.326C166.898 111.326 167.537 110.686 167.537 109.897C167.537 109.108 166.898 108.469 166.109 108.469C165.32 108.469 164.68 109.108 164.68 109.897C164.68 110.686 165.32 111.326 166.109 111.326Z" fill="#049016"/>
<path d="M159.031 144.691C159.82 144.691 160.46 144.052 160.46 143.263C160.46 142.474 159.82 141.834 159.031 141.834C158.242 141.834 157.603 142.474 157.603 143.263C157.603 144.052 158.242 144.691 159.031 144.691Z" fill="#049016"/>
<path d="M160.674 159.854C161.463 159.854 162.103 159.215 162.103 158.426C162.103 157.637 161.463 156.997 160.674 156.997C159.885 156.997 159.246 157.637 159.246 158.426C159.246 159.215 159.885 159.854 160.674 159.854Z" fill="#049016"/>
<path d="M190.414 66.3342C191.203 66.3342 191.843 65.6946 191.843 64.9056C191.843 64.1166 191.203 63.4771 190.414 63.4771C189.625 63.4771 188.986 64.1166 188.986 64.9056C188.986 65.6946 189.625 66.3342 190.414 66.3342Z" fill="#049016"/>
<path d="M190.003 109.66C190.792 109.66 191.431 109.02 191.431 108.231C191.431 107.442 190.792 106.803 190.003 106.803C189.214 106.803 188.574 107.442 188.574 108.231C188.574 109.02 189.214 109.66 190.003 109.66Z" fill="#049016"/>
<path d="M190.18 161.509C190.969 161.509 191.609 160.869 191.609 160.08C191.609 159.291 190.969 158.651 190.18 158.651C189.391 158.651 188.751 159.291 188.751 160.08C188.751 160.869 189.391 161.509 190.18 161.509Z" fill="#049016"/>
<path d="M186.446 185.543C187.235 185.543 187.874 184.903 187.874 184.114C187.874 183.325 187.235 182.686 186.446 182.686C185.657 182.686 185.017 183.325 185.017 184.114C185.017 184.903 185.657 185.543 186.446 185.543Z" fill="#049016"/>
</g>
</g>
<defs>
<radialGradient id="paint0_radial_16_1031" cx="0" cy="0" r="1" gradientUnits="userSpaceOnUse" gradientTransform="translate(91.8943 164.503) scale(7.14286)">
<stop offset="0.1" stop-color="white"/>
<stop offset="0.2" stop-color="#036F11"/>
<stop offset="1" stop-color="#036F11" stop-opacity="0"/>
</radialGradient>
<radialGradient id="paint1_radial_16_1031" cx="0" cy="0" r="1" gradientUnits="userSpaceOnUse" gradientTransform="translate(90.4914 192.443) scale(7.14286)">
<stop offset="0.1" stop-color="white"/>
<stop offset="0.2" stop-color="#036F11"/>
<stop offset="1" stop-color="#036F11" stop-opacity="0"/>
</radialGradient>
<radialGradient id="paint2_radial_16_1031" cx="0" cy="0" r="1" gradientUnits="userSpaceOnUse" gradientTransform="translate(118.137 165.148) scale(7.14286)">
<stop offset="0.1" stop-color="white"/>
<stop offset="0.2" stop-color="#036F11"/>
<stop offset="1" stop-color="#036F11" stop-opacity="0"/>
</radialGradient>
<radialGradient id="paint3_radial_16_1031" cx="0" cy="0" r="1" gradientUnits="userSpaceOnUse" gradientTransform="translate(110.663 182.637) scale(7.14286)">
<stop offset="0.1" stop-color="white"/>
<stop offset="0.2" stop-color="#036F11"/>
<stop offset="1" stop-color="#036F11" stop-opacity="0"/>
</radialGradient>
<radialGradient id="paint4_radial_16_1031" cx="0" cy="0" r="1" gradientUnits="userSpaceOnUse" gradientTransform="translate(165.297 190.203) scale(7.14286)">
<stop offset="0.1" stop-color="white"/>
<stop offset="0.2" stop-color="#036F11"/>
<stop offset="1" stop-color="#036F11" stop-opacity="0"/>
</radialGradient>
<radialGradient id="paint5_radial_16_1031" cx="0" cy="0" r="1" gradientUnits="userSpaceOnUse" gradientTransform="translate(188.654 43.3172) scale(7.14286)">
<stop offset="0.1" stop-color="white"/>
<stop offset="0.2" stop-color="#036F11"/>
<stop offset="1" stop-color="#036F11" stop-opacity="0"/>
</radialGradient>
<radialGradient id="paint6_radial_16_1031" cx="0" cy="0" r="1" gradientUnits="userSpaceOnUse" gradientTransform="translate(181.269 137.974) scale(7.14286)">
<stop offset="0.1" stop-color="white"/>
<stop offset="0.2" stop-color="#036F11"/>
<stop offset="1" stop-color="#036F11" stop-opacity="0"/>
</radialGradient>
<clipPath id="clip0_16_1031">
<rect width="200" height="200" fill="white" transform="translate(0 0.5)"/>
</clipPath>
</defs>
</svg>
