<svg width="890" height="1673" viewBox="0 0 890 1673" fill="none" xmlns="http://www.w3.org/2000/svg">
<g opacity="0.7" clip-path="url(#clip0_1_1426)">
<mask id="mask0_1_1426" style="mask-type:luminance" maskUnits="userSpaceOnUse" x="0" y="-327" width="961" height="2000">
<path d="M960 1673L0 1673L-9.04917e-06 -327L960 -327L960 1673Z" fill="white"/>
</mask>
<g mask="url(#mask0_1_1426)">
<path d="M-59.9867 -80.474L49.48 5.33935" stroke="#023909" stroke-width="1.5"/>
<path d="M49.48 5.33936L30.76 -74.6207" stroke="#023909" stroke-width="1.5"/>
<path d="M49.48 5.34038L138.68 24.4203" stroke="#023909" stroke-width="1.5"/>
<path d="M30.76 -74.6205L-51.78 17.4128" stroke="#023909" stroke-width="1.5"/>
<path d="M166.54 126.433L226.66 139.979" stroke="#023909" stroke-width="1.5"/>
<path d="M166.54 126.433L138.68 24.4193" stroke="#023909" stroke-width="1.5"/>
<path d="M166.54 126.433L273.047 201.227" stroke="#023909" stroke-width="1.5"/>
<path d="M138.68 24.4203L133.273 -60.0862" stroke="#023909" stroke-width="1.5"/>
<path d="M273.047 201.226L329.86 227.979" stroke="#023909" stroke-width="1.5"/>
<path d="M273.047 201.227L226.66 139.98" stroke="#023909" stroke-width="1.5"/>
<path d="M273.047 201.227L367.367 121.08" stroke="#023909" stroke-width="1.5"/>
<path d="M252.573 11.5468L341.68 45.0735" stroke="#023909" stroke-width="1.5"/>
<path d="M252.573 11.5463L227.153 -86.0937" stroke="#023909" stroke-width="1.5"/>
<path d="M252.573 11.5463L331.653 -54.7272" stroke="#023909" stroke-width="1.5"/>
<path d="M252.573 11.5471L138.68 24.4203" stroke="#023909" stroke-width="1.5"/>
<path d="M252.574 11.546L226.66 139.979" stroke="#023909" stroke-width="1.5"/>
<path d="M252.573 11.5463L133.273 -60.087" stroke="#023909" stroke-width="1.5"/>
<path d="M372.613 305.853L329.86 227.98" stroke="#023909" stroke-width="1.5"/>
<path d="M372.613 305.854L468.947 323.107" stroke="#023909" stroke-width="1.5"/>
<path d="M329.86 227.979L367.367 121.08" stroke="#023909" stroke-width="1.5"/>
<path d="M367.367 121.081L341.68 45.074" stroke="#023909" stroke-width="1.5"/>
<path d="M341.68 45.0735L331.653 -54.7266" stroke="#023909" stroke-width="1.5"/>
<path d="M341.68 45.0735L467.16 21.8201" stroke="#023909" stroke-width="1.5"/>
<path d="M341.68 45.0733L460.894 114.547" stroke="#023909" stroke-width="1.5"/>
<path d="M341.68 45.0726L226.66 139.979" stroke="#023909" stroke-width="1.5"/>
<path d="M467.56 440.567L570.98 416.687" stroke="#023909" stroke-width="1.5"/>
<path d="M467.56 440.567L468.947 323.107" stroke="#023909" stroke-width="1.5"/>
<path d="M467.56 440.567L566.754 508.094" stroke="#023909" stroke-width="1.5"/>
<path d="M467.56 440.567L545.974 339.054" stroke="#023909" stroke-width="1.5"/>
<path d="M468.947 323.106L545.974 339.053" stroke="#023909" stroke-width="1.5"/>
<path d="M468.947 323.107L572.301 237.867" stroke="#023909" stroke-width="1.5"/>
<path d="M468.947 323.106L570.98 416.686" stroke="#023909" stroke-width="1.5"/>
<path d="M460.894 114.547L467.16 21.8199" stroke="#023909" stroke-width="1.5"/>
<path d="M460.893 114.547L367.367 121.081" stroke="#023909" stroke-width="1.5"/>
<path d="M460.894 114.546L564.88 143.406" stroke="#023909" stroke-width="1.5"/>
<path d="M460.894 114.547L562.414 35.4666" stroke="#023909" stroke-width="1.5"/>
<path d="M467.16 21.8193L449.627 -69.374" stroke="#023909" stroke-width="1.5"/>
<path d="M449.627 -69.3737L562.414 35.4663" stroke="#023909" stroke-width="1.5"/>
<path d="M674.5 1018L862 1116" stroke="#023909" stroke-width="1.5"/>
<path d="M733 948L652 802" stroke="#023909" stroke-width="1.5"/>
<path d="M672 1018L771 1148" stroke="#023909" stroke-width="1.5"/>
<path d="M652 935L651 802" stroke="#023909" stroke-width="1.5"/>
<path d="M574.06 724.033L642.82 727.207" stroke="#023909" stroke-width="1.5"/>
<path d="M574.06 724.033L651.207 801.513" stroke="#023909" stroke-width="1.5"/>
<path d="M574.06 724.033L630.694 612.147" stroke="#023909" stroke-width="1.5"/>
<path d="M540.7 600.493L630.693 612.146" stroke="#023909" stroke-width="1.5"/>
<path d="M540.7 600.493L566.753 508.093" stroke="#023909" stroke-width="1.5"/>
<path d="M540.7 600.493L633.08 538.4" stroke="#023909" stroke-width="1.5"/>
<path d="M540.7 600.493L574.06 724.033" stroke="#023909" stroke-width="1.5"/>
<path d="M566.753 508.093L633.08 538.4" stroke="#023909" stroke-width="1.5"/>
<path d="M566.753 508.094L570.98 416.687" stroke="#023909" stroke-width="1.5"/>
<path d="M570.98 416.687L640.8 431.66" stroke="#023909" stroke-width="1.5"/>
<path d="M570.981 416.686L545.974 339.053" stroke="#023909" stroke-width="1.5"/>
<path d="M545.974 339.053L639.954 318.426" stroke="#023909" stroke-width="1.5"/>
<path d="M545.974 339.053L572.301 237.866" stroke="#023909" stroke-width="1.5"/>
<path d="M572.3 237.866L564.88 143.406" stroke="#023909" stroke-width="1.5"/>
<path d="M572.3 237.866L639.954 318.426" stroke="#023909" stroke-width="1.5"/>
<path d="M572.3 237.866L637.874 136.153" stroke="#023909" stroke-width="1.5"/>
<path d="M564.88 143.406L637.873 136.152" stroke="#023909" stroke-width="1.5"/>
<path d="M564.88 143.406L562.414 35.4658" stroke="#023909" stroke-width="1.5"/>
<path d="M564.88 143.406L626.88 34.1525" stroke="#023909" stroke-width="1.5"/>
<path d="M564.88 143.406L467.16 21.8191" stroke="#023909" stroke-width="1.5"/>
<path d="M562.414 35.4663L626.88 34.153" stroke="#023909" stroke-width="1.5"/>
<path d="M562.413 35.4663L467.16 21.8197" stroke="#023909" stroke-width="1.5"/>
<path d="M570.507 -89.9469L562.414 35.4663" stroke="#023909" stroke-width="1.5"/>
<path d="M673.114 1016.37L650.467 934.513" stroke="#023909" stroke-width="1.5"/>
<path d="M673.114 1016.37L731.887 947.533" stroke="#023909" stroke-width="1.5"/>
<path d="M650.467 934.514L731.887 947.534" stroke="#023909" stroke-width="1.5"/>
<path d="M651.207 801.513L642.82 727.206" stroke="#023909" stroke-width="1.5"/>
<path d="M642.82 727.206L725.087 745.92" stroke="#023909" stroke-width="1.5"/>
<path d="M642.821 727.207L630.694 612.147" stroke="#023909" stroke-width="1.5"/>
<path d="M630.694 612.146L633.081 538.399" stroke="#023909" stroke-width="1.5"/>
<path d="M630.694 612.147L740.081 623.467" stroke="#023909" stroke-width="1.5"/>
<path d="M633.08 538.4L726.207 529.986" stroke="#023909" stroke-width="1.5"/>
<path d="M633.08 538.4L640.8 431.66" stroke="#023909" stroke-width="1.5"/>
<path d="M633.08 538.4L570.98 416.686" stroke="#023909" stroke-width="1.5"/>
<path d="M640.8 431.66L732.567 412.367" stroke="#023909" stroke-width="1.5"/>
<path d="M640.8 431.66L566.753 508.094" stroke="#023909" stroke-width="1.5"/>
<path d="M640.8 431.66L639.953 318.427" stroke="#023909" stroke-width="1.5"/>
<path d="M640.8 431.66L726.207 529.986" stroke="#023909" stroke-width="1.5"/>
<path d="M639.953 318.426L570.98 416.686" stroke="#023909" stroke-width="1.5"/>
<path d="M639.953 318.427L760.147 346.454" stroke="#023909" stroke-width="1.5"/>
<path d="M637.873 136.153L626.88 34.1532" stroke="#023909" stroke-width="1.5"/>
<path d="M637.874 136.153L562.414 35.4665" stroke="#023909" stroke-width="1.5"/>
<path d="M770.327 1320.81L835.073 1322.17" stroke="#023909" stroke-width="1.5"/>
<path d="M770 1321L770 1150" stroke="#023909" stroke-width="1.5"/>
<path d="M771.761 1001.16L731.887 947.533" stroke="#023909" stroke-width="1.5"/>
<path d="M771.761 1001.16L673.114 1016.37" stroke="#023909" stroke-width="1.5"/>
<path d="M771.76 1001.16L866.787 1038.86" stroke="#023909" stroke-width="1.5"/>
<path d="M771.76 1001.16L839.807 910.006" stroke="#023909" stroke-width="1.5"/>
<path d="M771.761 1001.16L650.467 934.513" stroke="#023909" stroke-width="1.5"/>
<path d="M731.887 947.534L839.807 910.007" stroke="#023909" stroke-width="1.5"/>
<path d="M725.087 745.92L651.207 801.513" stroke="#023909" stroke-width="1.5"/>
<path d="M725.087 745.92L740.08 623.466" stroke="#023909" stroke-width="1.5"/>
<path d="M740.081 623.467L726.207 529.987" stroke="#023909" stroke-width="1.5"/>
<path d="M740.08 623.467L849.907 621.86" stroke="#023909" stroke-width="1.5"/>
<path d="M726.207 529.986L732.567 412.366" stroke="#023909" stroke-width="1.5"/>
<path d="M726.207 529.986L630.694 612.146" stroke="#023909" stroke-width="1.5"/>
<path d="M726.207 529.987L852.707 533.941" stroke="#023909" stroke-width="1.5"/>
<path d="M732.567 412.367L760.147 346.454" stroke="#023909" stroke-width="1.5"/>
<path d="M732.567 412.366L851.507 436.606" stroke="#023909" stroke-width="1.5"/>
<path d="M760.147 346.454L846.587 334.9" stroke="#023909" stroke-width="1.5"/>
<path d="M760.147 346.453L851.507 436.606" stroke="#023909" stroke-width="1.5"/>
<path d="M760.147 346.454L842.427 246.027" stroke="#023909" stroke-width="1.5"/>
<path d="M772.434 126.987L859.547 115.52" stroke="#023909" stroke-width="1.5"/>
<path d="M772.434 126.987L751.86 15.0334" stroke="#023909" stroke-width="1.5"/>
<path d="M772.433 126.987L637.873 136.153" stroke="#023909" stroke-width="1.5"/>
<path d="M772.434 126.986L842.427 246.026" stroke="#023909" stroke-width="1.5"/>
<path d="M751.86 15.0337L728.273 -62.353" stroke="#023909" stroke-width="1.5"/>
<path d="M751.86 15.0337L859.454 14.1536" stroke="#023909" stroke-width="1.5"/>
<path d="M751.86 15.0326L626.88 34.1526" stroke="#023909" stroke-width="1.5"/>
<path d="M835.193 1429.43L835.073 1322.17" stroke="#023909" stroke-width="1.5"/>
<path d="M835 1429L896 1521" stroke="#023909" stroke-width="1.5"/>
<path d="M835.193 1429.43L770.327 1320.81" stroke="#023909" stroke-width="1.5"/>
<path d="M835.193 1429.43L970.867 1415.2" stroke="#023909" stroke-width="1.5"/>
<path d="M835.073 1322.17L863.473 1246.15" stroke="#023909" stroke-width="1.5"/>
<path d="M835.073 1322.17L961.32 1309.39" stroke="#023909" stroke-width="1.5"/>
<path d="M835 1322L769 1152" stroke="#023909" stroke-width="1.5"/>
<path d="M863.474 1246.15L929.641 1213.49" stroke="#023909" stroke-width="1.5"/>
<path d="M859.907 1115.57L866.787 1038.86" stroke="#023909" stroke-width="1.5"/>
<path d="M859.907 1115.57L943.574 1108.93" stroke="#023909" stroke-width="1.5"/>
<path d="M859.907 1115.57L766.127 1147.27" stroke="#023909" stroke-width="1.5"/>
<path d="M859.907 1115.57L929.64 1213.49" stroke="#023909" stroke-width="1.5"/>
<path d="M859.907 1115.57L949.06 1026.94" stroke="#023909" stroke-width="1.5"/>
<path d="M859.907 1115.57L863.473 1246.15" stroke="#023909" stroke-width="1.5"/>
<path d="M866.787 1038.86L949.06 1026.94" stroke="#023909" stroke-width="1.5"/>
<path d="M866.787 1038.86L943.574 1108.93" stroke="#023909" stroke-width="1.5"/>
<path d="M866.787 1038.86L839.807 910.007" stroke="#023909" stroke-width="1.5"/>
<path d="M866.787 1038.86L766.127 1147.27" stroke="#023909" stroke-width="1.5"/>
<path d="M839.807 910.007L826.547 836.94" stroke="#023909" stroke-width="1.5"/>
<path d="M839.807 910.007L947.207 909.14" stroke="#023909" stroke-width="1.5"/>
<path d="M826.547 836.94L867.121 743.074" stroke="#023909" stroke-width="1.5"/>
<path d="M826.547 836.94L945.521 845.933" stroke="#023909" stroke-width="1.5"/>
<path d="M826.547 836.94L725.087 745.92" stroke="#023909" stroke-width="1.5"/>
<path d="M826.547 836.94L947.207 909.14" stroke="#023909" stroke-width="1.5"/>
<path d="M867.12 743.073L955.293 726.993" stroke="#023909" stroke-width="1.5"/>
<path d="M849.907 621.86L852.707 533.94" stroke="#023909" stroke-width="1.5"/>
<path d="M849.907 621.86L867.12 743.073" stroke="#023909" stroke-width="1.5"/>
<path d="M849.907 621.86L972.047 632.266" stroke="#023909" stroke-width="1.5"/>
<path d="M852.707 533.941L935.7 508.174" stroke="#023909" stroke-width="1.5"/>
<path d="M852.707 533.941L851.507 436.607" stroke="#023909" stroke-width="1.5"/>
<path d="M851.507 436.606L930.981 432.226" stroke="#023909" stroke-width="1.5"/>
<path d="M851.507 436.606L846.587 334.899" stroke="#023909" stroke-width="1.5"/>
<path d="M851.507 436.607L935.701 508.174" stroke="#023909" stroke-width="1.5"/>
<path d="M846.587 334.901L934.147 347.161" stroke="#023909" stroke-width="1.5"/>
<path d="M846.587 334.9L842.427 246.026" stroke="#023909" stroke-width="1.5"/>
<path d="M846.587 334.899L930.98 432.226" stroke="#023909" stroke-width="1.5"/>
<path d="M846.587 334.9L732.567 412.367" stroke="#023909" stroke-width="1.5"/>
<path d="M842.427 246.026L929.034 221.993" stroke="#023909" stroke-width="1.5"/>
<path d="M859.547 115.52L946.98 118.34" stroke="#023909" stroke-width="1.5"/>
<path d="M859.547 115.52L859.454 14.1532" stroke="#023909" stroke-width="1.5"/>
<path d="M859.547 115.52L929.033 221.993" stroke="#023909" stroke-width="1.5"/>
<path d="M859.454 14.1538L843.84 -74.4595" stroke="#023909" stroke-width="1.5"/>
<path d="M859.454 14.1538L925.3 -76.4528" stroke="#023909" stroke-width="1.5"/>
<path d="M843.84 -74.4596L751.86 15.0337" stroke="#023909" stroke-width="1.5"/>
<path d="M949.06 1026.94L839.807 910.007" stroke="#023909" stroke-width="1.5"/>
<path d="M934.147 347.159L851.507 436.606" stroke="#023909" stroke-width="1.5"/>
<path d="M946.981 118.34L859.454 14.1532" stroke="#023909" stroke-width="1.5"/>
<path d="M946.98 118.34L842.427 246.026" stroke="#023909" stroke-width="1.5"/>
<path d="M970.414 31.5859L859.454 14.1527" stroke="#023909" stroke-width="1.5"/>
<path d="M1030.47 1125.27L859.907 1115.57" stroke="#023909" stroke-width="1.5"/>
<path d="M49.48 2.00704C51.321 2.00704 52.8134 3.49942 52.8134 5.34037C52.8134 7.18132 51.321 8.67371 49.48 8.67371C47.6391 8.67371 46.1467 7.18132 46.1467 5.34037C46.1467 3.49942 47.6391 2.00704 49.48 2.00704Z" fill="#023909"/>
<path d="M166.54 123.1C168.381 123.1 169.873 124.593 169.873 126.434C169.873 128.275 168.381 129.767 166.54 129.767C164.699 129.767 163.207 128.275 163.207 126.434C163.207 124.593 164.699 123.1 166.54 123.1Z" fill="#023909"/>
<path d="M138.68 21.0865C140.521 21.0865 142.013 22.5789 142.013 24.4198C142.013 26.2608 140.521 27.7532 138.68 27.7532C136.839 27.7532 135.347 26.2608 135.347 24.4198C135.347 22.5789 136.839 21.0865 138.68 21.0865Z" fill="#023909"/>
<path d="M273.047 197.893C274.888 197.893 276.38 199.385 276.38 201.226C276.38 203.067 274.888 204.559 273.047 204.559C271.206 204.559 269.713 203.067 269.713 201.226C269.713 199.385 271.206 197.893 273.047 197.893Z" fill="#023909"/>
<path d="M226.66 136.647C228.501 136.647 229.993 138.139 229.993 139.98C229.993 141.821 228.501 143.314 226.66 143.314C224.819 143.314 223.327 141.821 223.327 139.98C223.327 138.139 224.819 136.647 226.66 136.647Z" fill="#023909"/>
<path d="M252.574 8.21407C254.415 8.21407 255.907 9.70646 255.907 11.5474C255.907 13.3884 254.415 14.8807 252.574 14.8807C250.733 14.8807 249.24 13.3884 249.24 11.5474C249.24 9.70646 250.733 8.21407 252.574 8.21407Z" fill="#023909"/>
<path d="M372.613 302.521C374.454 302.521 375.947 304.013 375.947 305.854C375.947 307.695 374.454 309.187 372.613 309.187C370.772 309.187 369.28 307.695 369.28 305.854C369.28 304.013 370.772 302.521 372.613 302.521Z" fill="#023909"/>
<path d="M329.86 224.647C331.701 224.647 333.193 226.14 333.193 227.981C333.193 229.822 331.701 231.314 329.86 231.314C328.019 231.314 326.527 229.822 326.527 227.981C326.527 226.14 328.019 224.647 329.86 224.647Z" fill="#023909"/>
<path d="M367.367 117.747C369.208 117.747 370.7 119.239 370.7 121.08C370.7 122.921 369.208 124.414 367.367 124.414C365.526 124.414 364.033 122.921 364.033 121.08C364.033 119.239 365.526 117.747 367.367 117.747Z" fill="#023909"/>
<path d="M341.68 41.7397C343.521 41.7397 345.013 43.2321 345.013 45.073C345.013 46.914 343.521 48.4064 341.68 48.4064C339.839 48.4064 338.347 46.914 338.347 45.073C338.347 43.2321 339.839 41.7397 341.68 41.7397Z" fill="#023909"/>
<path d="M467.56 437.233C469.401 437.233 470.893 438.726 470.893 440.567C470.893 442.408 469.401 443.9 467.56 443.9C465.719 443.9 464.227 442.408 464.227 440.567C464.227 438.726 465.719 437.233 467.56 437.233Z" fill="#023909"/>
<path d="M468.947 319.774C470.788 319.774 472.28 321.266 472.28 323.107C472.28 324.948 470.788 326.44 468.947 326.44C467.106 326.44 465.614 324.948 465.614 323.107C465.614 321.266 467.106 319.774 468.947 319.774Z" fill="#023909"/>
<path d="M460.894 111.213C462.735 111.213 464.227 112.705 464.227 114.546C464.227 116.387 462.735 117.88 460.894 117.88C459.053 117.88 457.56 116.387 457.56 114.546C457.56 112.705 459.053 111.213 460.894 111.213Z" fill="#023909"/>
<path d="M467.16 18.487C469.001 18.487 470.494 19.9794 470.494 21.8204C470.494 23.6613 469.001 25.1537 467.16 25.1537C465.319 25.1537 463.827 23.6613 463.827 21.8204C463.827 19.9794 465.319 18.487 467.16 18.487Z" fill="#023909"/>
<path d="M574.06 720.7C575.901 720.7 577.393 722.192 577.393 724.033C577.393 725.874 575.901 727.366 574.06 727.366C572.219 727.366 570.727 725.874 570.727 724.033C570.727 722.192 572.219 720.7 574.06 720.7Z" fill="#023909"/>
<path d="M540.701 597.16C542.541 597.16 544.034 598.652 544.034 600.493C544.034 602.334 542.541 603.826 540.701 603.826C538.86 603.826 537.367 602.334 537.367 600.493C537.367 598.652 538.86 597.16 540.701 597.16Z" fill="#023909"/>
<path d="M566.753 504.76C568.594 504.76 570.087 506.252 570.087 508.093C570.087 509.934 568.594 511.426 566.753 511.426C564.912 511.426 563.42 509.934 563.42 508.093C563.42 506.252 564.912 504.76 566.753 504.76Z" fill="#023909"/>
<path d="M570.98 413.353C572.821 413.353 574.314 414.845 574.314 416.686C574.314 418.527 572.821 420.019 570.98 420.019C569.139 420.019 567.647 418.527 567.647 416.686C567.647 414.845 569.139 413.353 570.98 413.353Z" fill="#023909"/>
<path d="M545.974 335.719C547.814 335.719 549.307 337.212 549.307 339.053C549.307 340.893 547.814 342.386 545.974 342.386C544.133 342.386 542.64 340.893 542.64 339.053C542.64 337.212 544.133 335.719 545.974 335.719Z" fill="#023909"/>
<path d="M572.3 234.534C574.141 234.534 575.633 236.026 575.633 237.867C575.633 239.708 574.141 241.201 572.3 241.201C570.459 241.201 568.967 239.708 568.967 237.867C568.967 236.026 570.459 234.534 572.3 234.534Z" fill="#023909"/>
<path d="M564.88 140.074C566.721 140.074 568.214 141.566 568.214 143.407C568.214 145.248 566.721 146.74 564.88 146.74C563.039 146.74 561.547 145.248 561.547 143.407C561.547 141.566 563.039 140.074 564.88 140.074Z" fill="#023909"/>
<path d="M562.413 32.134C564.254 32.134 565.747 33.6264 565.747 35.4673C565.747 37.3083 564.254 38.8007 562.413 38.8007C560.572 38.8007 559.08 37.3083 559.08 35.4673C559.08 33.6264 560.572 32.134 562.413 32.134Z" fill="#023909"/>
<path d="M673.113 1013.03C674.954 1013.03 676.447 1014.53 676.447 1016.37C676.447 1018.21 674.954 1019.7 673.113 1019.7C671.273 1019.7 669.78 1018.21 669.78 1016.37C669.78 1014.53 671.273 1013.03 673.113 1013.03Z" fill="#023909"/>
<path d="M650.467 931.18C652.308 931.18 653.8 932.672 653.8 934.513C653.8 936.354 652.308 937.847 650.467 937.847C648.626 937.847 647.134 936.354 647.134 934.513C647.134 932.672 648.626 931.18 650.467 931.18Z" fill="#023909"/>
<path d="M651.207 798.18C653.048 798.18 654.54 799.672 654.54 801.513C654.54 803.354 653.048 804.847 651.207 804.847C649.366 804.847 647.873 803.354 647.873 801.513C647.873 799.672 649.366 798.18 651.207 798.18Z" fill="#023909"/>
<path d="M642.82 723.873C644.661 723.873 646.154 725.365 646.154 727.206C646.154 729.047 644.661 730.54 642.82 730.54C640.98 730.54 639.487 729.047 639.487 727.206C639.487 725.365 640.98 723.873 642.82 723.873Z" fill="#023909"/>
<path d="M630.694 608.814C632.535 608.814 634.027 610.306 634.027 612.147C634.027 613.988 632.535 615.48 630.694 615.48C628.853 615.48 627.36 613.988 627.36 612.147C627.36 610.306 628.853 608.814 630.694 608.814Z" fill="#023909"/>
<path d="M633.08 535.067C634.921 535.067 636.413 536.56 636.413 538.401C636.413 540.242 634.921 541.734 633.08 541.734C631.239 541.734 629.747 540.242 629.747 538.401C629.747 536.56 631.239 535.067 633.08 535.067Z" fill="#023909"/>
<path d="M640.801 428.326C642.642 428.326 644.134 429.819 644.134 431.66C644.134 433.501 642.642 434.993 640.801 434.993C638.96 434.993 637.467 433.501 637.467 431.66C637.467 429.819 638.96 428.326 640.801 428.326Z" fill="#023909"/>
<path d="M639.954 315.094C641.795 315.094 643.287 316.586 643.287 318.427C643.287 320.268 641.795 321.761 639.954 321.761C638.113 321.761 636.62 320.268 636.62 318.427C636.62 316.586 638.113 315.094 639.954 315.094Z" fill="#023909"/>
<path d="M637.874 132.819C639.715 132.819 641.207 134.312 641.207 136.153C641.207 137.994 639.715 139.486 637.874 139.486C636.033 139.486 634.54 137.994 634.54 136.153C634.54 134.312 636.033 132.819 637.874 132.819Z" fill="#023909"/>
<path d="M626.881 30.8203C628.722 30.8203 630.214 32.3127 630.214 34.1536C630.214 35.9946 628.722 37.4869 626.881 37.4869C625.04 37.4869 623.547 35.9946 623.547 34.1536C623.547 32.3127 625.04 30.8203 626.881 30.8203Z" fill="#023909"/>
<path d="M770.327 1317.47C772.168 1317.47 773.66 1318.97 773.66 1320.81C773.66 1322.65 772.168 1324.14 770.327 1324.14C768.486 1324.14 766.994 1322.65 766.994 1320.81C766.994 1318.97 768.486 1317.47 770.327 1317.47Z" fill="#023909"/>
<path d="M766.127 1143.94C767.968 1143.94 769.46 1145.43 769.46 1147.27C769.46 1149.11 767.968 1150.61 766.127 1150.61C764.286 1150.61 762.794 1149.11 762.794 1147.27C762.794 1145.43 764.286 1143.94 766.127 1143.94Z" fill="#023909"/>
<path d="M771.76 997.827C773.601 997.827 775.093 999.319 775.093 1001.16C775.093 1003 773.601 1004.49 771.76 1004.49C769.919 1004.49 768.427 1003 768.427 1001.16C768.427 999.319 769.919 997.827 771.76 997.827Z" fill="#023909"/>
<path d="M731.887 944.2C733.728 944.2 735.22 945.692 735.22 947.533C735.22 949.374 733.728 950.866 731.887 950.866C730.046 950.866 728.554 949.374 728.554 947.533C728.554 945.692 730.046 944.2 731.887 944.2Z" fill="#023909"/>
<path d="M725.087 742.587C726.928 742.587 728.421 744.079 728.421 745.92C728.421 747.761 726.928 749.253 725.087 749.253C723.246 749.253 721.754 747.761 721.754 745.92C721.754 744.079 723.246 742.587 725.087 742.587Z" fill="#023909"/>
<path d="M740.08 620.133C741.921 620.133 743.413 621.625 743.413 623.466C743.413 625.307 741.921 626.799 740.08 626.799C738.239 626.799 736.747 625.307 736.747 623.466C736.747 621.625 738.239 620.133 740.08 620.133Z" fill="#023909"/>
<path d="M726.207 526.654C728.048 526.654 729.54 528.146 729.54 529.987C729.54 531.828 728.048 533.321 726.207 533.321C724.366 533.321 722.874 531.828 722.874 529.987C722.874 528.146 724.366 526.654 726.207 526.654Z" fill="#023909"/>
<path d="M732.567 409.033C734.408 409.033 735.9 410.526 735.9 412.367C735.9 414.208 734.408 415.7 732.567 415.7C730.726 415.7 729.233 414.208 729.233 412.367C729.233 410.526 730.726 409.033 732.567 409.033Z" fill="#023909"/>
<path d="M760.147 343.12C761.988 343.12 763.48 344.612 763.48 346.453C763.48 348.294 761.988 349.787 760.147 349.787C758.306 349.787 756.814 348.294 756.814 346.453C756.814 344.612 758.306 343.12 760.147 343.12Z" fill="#023909"/>
<path d="M772.433 123.653C774.274 123.653 775.767 125.145 775.767 126.986C775.767 128.827 774.274 130.32 772.433 130.32C770.592 130.32 769.1 128.827 769.1 126.986C769.1 125.145 770.592 123.653 772.433 123.653Z" fill="#023909"/>
<path d="M751.86 11.6998C753.701 11.6998 755.193 13.1922 755.193 15.0331C755.193 16.8741 753.701 18.3665 751.86 18.3665C750.019 18.3665 748.527 16.8741 748.527 15.0331C748.527 13.1922 750.019 11.6998 751.86 11.6998Z" fill="#023909"/>
<path d="M835.194 1426.09C837.035 1426.09 838.527 1427.59 838.527 1429.43C838.527 1431.27 837.035 1432.76 835.194 1432.76C833.353 1432.76 831.861 1431.27 831.861 1429.43C831.861 1427.59 833.353 1426.09 835.194 1426.09Z" fill="#023909"/>
<path d="M835.074 1318.83C836.915 1318.83 838.407 1320.33 838.407 1322.17C838.407 1324.01 836.915 1325.5 835.074 1325.5C833.233 1325.5 831.74 1324.01 831.74 1322.17C831.74 1320.33 833.233 1318.83 835.074 1318.83Z" fill="#023909"/>
<path d="M863.474 1242.81C865.315 1242.81 866.807 1244.31 866.807 1246.15C866.807 1247.99 865.315 1249.48 863.474 1249.48C861.633 1249.48 860.14 1247.99 860.14 1246.15C860.14 1244.31 861.633 1242.81 863.474 1242.81Z" fill="#023909"/>
<path d="M859.907 1112.23C861.748 1112.23 863.241 1113.73 863.241 1115.57C863.241 1117.41 861.748 1118.9 859.907 1118.9C858.066 1118.9 856.574 1117.41 856.574 1115.57C856.574 1113.73 858.066 1112.23 859.907 1112.23Z" fill="#023909"/>
<path d="M866.787 1035.53C868.628 1035.53 870.12 1037.02 870.12 1038.86C870.12 1040.7 868.628 1042.19 866.787 1042.19C864.946 1042.19 863.453 1040.7 863.453 1038.86C863.453 1037.02 864.946 1035.53 866.787 1035.53Z" fill="#023909"/>
<path d="M839.807 906.673C841.648 906.673 843.14 908.165 843.14 910.006C843.14 911.847 841.648 913.34 839.807 913.34C837.966 913.34 836.473 911.847 836.473 910.006C836.473 908.165 837.966 906.673 839.807 906.673Z" fill="#023909"/>
<path d="M826.547 833.606C828.388 833.606 829.88 835.099 829.88 836.94C829.88 838.781 828.388 840.273 826.547 840.273C824.706 840.273 823.214 838.781 823.214 836.94C823.214 835.099 824.706 833.606 826.547 833.606Z" fill="#023909"/>
<path d="M867.121 739.74C868.962 739.74 870.454 741.232 870.454 743.073C870.454 744.914 868.962 746.406 867.121 746.406C865.28 746.406 863.787 744.914 863.787 743.073C863.787 741.232 865.28 739.74 867.121 739.74Z" fill="#023909"/>
<path d="M849.907 618.526C851.748 618.526 853.241 620.019 853.241 621.86C853.241 623.701 851.748 625.193 849.907 625.193C848.066 625.193 846.574 623.701 846.574 621.86C846.574 620.019 848.066 618.526 849.907 618.526Z" fill="#023909"/>
<path d="M852.707 530.607C854.548 530.607 856.041 532.099 856.041 533.94C856.041 535.781 854.548 537.273 852.707 537.273C850.866 537.273 849.374 535.781 849.374 533.94C849.374 532.099 850.866 530.607 852.707 530.607Z" fill="#023909"/>
<path d="M851.507 433.274C853.348 433.274 854.84 434.766 854.84 436.607C854.84 438.448 853.348 439.941 851.507 439.941C849.666 439.941 848.174 438.448 848.174 436.607C848.174 434.766 849.666 433.274 851.507 433.274Z" fill="#023909"/>
<path d="M846.587 331.566C848.428 331.566 849.92 333.058 849.92 334.899C849.92 336.74 848.428 338.233 846.587 338.233C844.746 338.233 843.253 336.74 843.253 334.899C843.253 333.058 844.746 331.566 846.587 331.566Z" fill="#023909"/>
<path d="M842.427 242.693C844.268 242.693 845.76 244.185 845.76 246.026C845.76 247.867 844.268 249.359 842.427 249.359C840.586 249.359 839.094 247.867 839.094 246.026C839.094 244.185 840.586 242.693 842.427 242.693Z" fill="#023909"/>
<path d="M859.547 112.186C861.388 112.186 862.881 113.679 862.881 115.519C862.881 117.36 861.388 118.853 859.547 118.853C857.706 118.853 856.214 117.36 856.214 115.519C856.214 113.679 857.706 112.186 859.547 112.186Z" fill="#023909"/>
<path d="M859.454 10.82C861.295 10.82 862.787 12.3124 862.787 14.1534C862.787 15.9943 861.295 17.4867 859.454 17.4867C857.613 17.4867 856.12 15.9943 856.12 14.1534C856.12 12.3124 857.613 10.82 859.454 10.82Z" fill="#023909"/>
<path d="M132.287 31.8392L129.393 -82.1074" stroke="#036F11" stroke-width="1.5"/>
<path d="M132.287 31.8406L228.393 108.387" stroke="#036F11" stroke-width="1.5"/>
<path d="M132.287 31.8392L69.9601 -76.1742" stroke="#036F11" stroke-width="1.5"/>
<path d="M340.053 109.473L366.38 43.5459" stroke="#036F11" stroke-width="1.5"/>
<path d="M340.053 109.473L353.72 214.326" stroke="#036F11" stroke-width="1.5"/>
<path d="M340.053 109.473L256.94 43.8459" stroke="#036F11" stroke-width="1.5"/>
<path d="M340.053 109.473L447.827 102.686" stroke="#036F11" stroke-width="1.5"/>
<path d="M340.053 109.473L228.393 108.386" stroke="#036F11" stroke-width="1.5"/>
<path d="M340.053 109.473L429.56 32.4258" stroke="#036F11" stroke-width="1.5"/>
<path d="M360.64 -67.0873L366.38 43.546" stroke="#036F11" stroke-width="1.5"/>
<path d="M360.64 -67.0871L429.56 32.426" stroke="#036F11" stroke-width="1.5"/>
<path d="M454.054 311.474L537.487 331.174" stroke="#036F11" stroke-width="1.5"/>
<path d="M457.047 -76.3139L429.56 32.426" stroke="#036F11" stroke-width="1.5"/>
<path d="M672.113 338.241L753.94 319.321" stroke="#036F11" stroke-width="1.5"/>
<path d="M672.113 338.241L666.18 235.321" stroke="#036F11" stroke-width="1.5"/>
<path d="M672.113 338.24L736.82 431.46" stroke="#036F11" stroke-width="1.5"/>
<path d="M672.113 338.241L564.387 399.767" stroke="#036F11" stroke-width="1.5"/>
<path d="M672.114 338.241L537.487 331.174" stroke="#036F11" stroke-width="1.5"/>
<path d="M648.634 -71.6334L673.147 5.04663" stroke="#036F11" stroke-width="1.5"/>
<path d="M753.94 319.319L860.067 328.833" stroke="#036F11" stroke-width="1.5"/>
<path d="M753.94 319.32L736.82 431.46" stroke="#036F11" stroke-width="1.5"/>
<path d="M753.94 319.321L666.18 235.321" stroke="#036F11" stroke-width="1.5"/>
<path d="M753.94 319.321L871.447 245.014" stroke="#036F11" stroke-width="1.5"/>
<path d="M851.46 1712.54L940.207 1643.69" stroke="#036F11" stroke-width="1.5"/>
<path d="M867.201 1133.53L930.061 1117.01" stroke="#036F11" stroke-width="1.5"/>
<path d="M867.2 1133.53L767.82 1147.64" stroke="#036F11" stroke-width="1.5"/>
<path d="M867.2 1133.53L863.34 1241.55" stroke="#036F11" stroke-width="1.5"/>
<path d="M826.7 1001.15L842.98 941.66" stroke="#036F11" stroke-width="1.5"/>
<path d="M845.107 630.913L766.794 612.533" stroke="#036F11" stroke-width="1.5"/>
<path d="M839.047 108.946L837.914 17.093" stroke="#036F11" stroke-width="1.5"/>
<path d="M839.047 108.946L732.994 137.266" stroke="#036F11" stroke-width="1.5"/>
<path d="M839.047 108.946L947.513 140.833" stroke="#036F11" stroke-width="1.5"/>
<path d="M839.047 108.947L871.447 245.014" stroke="#036F11" stroke-width="1.5"/>
<path d="M839.047 108.946L941.1 8.45295" stroke="#036F11" stroke-width="1.5"/>
<path d="M839.047 108.946L828.134 -58.5337" stroke="#036F11" stroke-width="1.5"/>
<path d="M952.153 1208.35L863.34 1241.55" stroke="#036F11" stroke-width="1.5"/>
<path d="M952.154 1208.35L867.201 1133.53" stroke="#036F11" stroke-width="1.5"/>
<path d="M971.514 645.147L845.107 630.914" stroke="#036F11" stroke-width="1.5"/>
<path d="M926.134 413.207L832.133 440.713" stroke="#036F11" stroke-width="1.5"/>
<path d="M-39.7533 7.99304L69.9601 -76.1736" stroke="#036F11" stroke-width="1.5"/>
<path d="M228.393 108.387L256.94 43.8473" stroke="#036F11" stroke-width="1.5"/>
<path d="M228.393 108.387L366.38 43.5473" stroke="#036F11" stroke-width="1.5"/>
<path d="M254.74 -81.22L256.94 43.8468" stroke="#036F11" stroke-width="1.5"/>
<path d="M353.72 214.326L474.66 226.513" stroke="#036F11" stroke-width="1.5"/>
<path d="M366.38 43.546L429.56 32.4259" stroke="#036F11" stroke-width="1.5"/>
<path d="M366.38 43.5469L447.827 102.687" stroke="#036F11" stroke-width="1.5"/>
<path d="M366.38 43.5468L256.94 43.8468" stroke="#036F11" stroke-width="1.5"/>
<path d="M474.66 226.513L551.007 237.506" stroke="#036F11" stroke-width="1.5"/>
<path d="M474.66 226.513L454.054 311.473" stroke="#036F11" stroke-width="1.5"/>
<path d="M474.66 226.513L537.62 123.6" stroke="#036F11" stroke-width="1.5"/>
<path d="M447.827 102.687L429.56 32.4268" stroke="#036F11" stroke-width="1.5"/>
<path d="M447.826 102.686L537.62 123.6" stroke="#036F11" stroke-width="1.5"/>
<path d="M447.826 102.687L544.333 44.9069" stroke="#036F11" stroke-width="1.5"/>
<path d="M564.387 399.767L537.487 331.174" stroke="#036F11" stroke-width="1.5"/>
<path d="M537.487 331.174L551.007 237.507" stroke="#036F11" stroke-width="1.5"/>
<path d="M537.487 331.174L474.66 226.514" stroke="#036F11" stroke-width="1.5"/>
<path d="M537.487 331.174L666.181 235.32" stroke="#036F11" stroke-width="1.5"/>
<path d="M551.007 237.506L537.62 123.599" stroke="#036F11" stroke-width="1.5"/>
<path d="M551.007 237.506L666.18 235.319" stroke="#036F11" stroke-width="1.5"/>
<path d="M551.007 237.506L454.054 311.473" stroke="#036F11" stroke-width="1.5"/>
<path d="M551.007 237.506L642.727 140.086" stroke="#036F11" stroke-width="1.5"/>
<path d="M537.62 123.6L544.334 44.9065" stroke="#036F11" stroke-width="1.5"/>
<path d="M537.62 123.6L642.727 140.086" stroke="#036F11" stroke-width="1.5"/>
<path d="M537.62 123.6L429.56 32.4263" stroke="#036F11" stroke-width="1.5"/>
<path d="M536.507 -71.5795L544.333 44.9073" stroke="#036F11" stroke-width="1.5"/>
<path d="M625.853 707.521L627.193 600.701" stroke="#036F11" stroke-width="1.5"/>
<path d="M627.193 600.701L674.62 530.287" stroke="#036F11" stroke-width="1.5"/>
<path d="M627.193 600.701L766.793 612.534" stroke="#036F11" stroke-width="1.5"/>
<path d="M627.193 600.701L771.52 537.234" stroke="#036F11" stroke-width="1.5"/>
<path d="M627.193 600.7L761.233 715.286" stroke="#036F11" stroke-width="1.5"/>
<path d="M674.62 530.287L771.52 537.234" stroke="#036F11" stroke-width="1.5"/>
<path d="M674.62 530.287L736.82 431.46" stroke="#036F11" stroke-width="1.5"/>
<path d="M674.62 530.287L766.793 612.534" stroke="#036F11" stroke-width="1.5"/>
<path d="M674.62 530.287L564.387 399.767" stroke="#036F11" stroke-width="1.5"/>
<path d="M674.62 530.287L832.133 440.714" stroke="#036F11" stroke-width="1.5"/>
<path d="M666.18 235.319L642.727 140.086" stroke="#036F11" stroke-width="1.5"/>
<path d="M642.727 140.086L732.994 137.266" stroke="#036F11" stroke-width="1.5"/>
<path d="M642.727 140.086L544.334 44.9064" stroke="#036F11" stroke-width="1.5"/>
<path d="M642.727 140.086L673.147 5.04631" stroke="#036F11" stroke-width="1.5"/>
<path d="M673.147 5.04663L738.433 -95.0402" stroke="#036F11" stroke-width="1.5"/>
<path d="M673.147 5.04732L544.334 44.9073" stroke="#036F11" stroke-width="1.5"/>
<path d="M767.82 1147.64L863.34 1241.55" stroke="#036F11" stroke-width="1.5"/>
<path d="M737 933.833L728.474 846.306" stroke="#036F11" stroke-width="1.5"/>
<path d="M737 933.833L842.98 941.66" stroke="#036F11" stroke-width="1.5"/>
<path d="M737 933.833L826.7 1001.15" stroke="#036F11" stroke-width="1.5"/>
<path d="M728.474 846.307L846.587 832.76" stroke="#036F11" stroke-width="1.5"/>
<path d="M728.474 846.307L761.234 715.286" stroke="#036F11" stroke-width="1.5"/>
<path d="M728.474 846.306L842.98 941.66" stroke="#036F11" stroke-width="1.5"/>
<path d="M761.233 715.287L836.967 721.421" stroke="#036F11" stroke-width="1.5"/>
<path d="M761.233 715.286L766.793 612.533" stroke="#036F11" stroke-width="1.5"/>
<path d="M761.233 715.286L845.107 630.913" stroke="#036F11" stroke-width="1.5"/>
<path d="M761.233 715.286L625.853 707.52" stroke="#036F11" stroke-width="1.5"/>
<path d="M766.794 612.534L771.521 537.234" stroke="#036F11" stroke-width="1.5"/>
<path d="M771.52 537.234L736.82 431.46" stroke="#036F11" stroke-width="1.5"/>
<path d="M771.52 537.234L832.134 440.714" stroke="#036F11" stroke-width="1.5"/>
<path d="M771.52 537.233L845.107 630.913" stroke="#036F11" stroke-width="1.5"/>
<path d="M736.82 431.46L832.133 440.713" stroke="#036F11" stroke-width="1.5"/>
<path d="M732.994 137.266L666.18 235.319" stroke="#036F11" stroke-width="1.5"/>
<path d="M732.993 137.266L673.147 5.04637" stroke="#036F11" stroke-width="1.5"/>
<path d="M840.207 1425.29L836.66 1316.75" stroke="#036F11" stroke-width="1.5"/>
<path d="M840.207 1425.29L967.293 1432.13" stroke="#036F11" stroke-width="1.5"/>
<path d="M840.207 1425.29L928.98 1519.9" stroke="#036F11" stroke-width="1.5"/>
<path d="M863.34 1241.55L926.487 1324.15" stroke="#036F11" stroke-width="1.5"/>
<path d="M842.98 941.66L925.294 932.513" stroke="#036F11" stroke-width="1.5"/>
<path d="M842.98 941.66L846.587 832.76" stroke="#036F11" stroke-width="1.5"/>
<path d="M842.98 941.66L935.994 1019.98" stroke="#036F11" stroke-width="1.5"/>
<path d="M846.587 832.76L836.967 721.42" stroke="#036F11" stroke-width="1.5"/>
<path d="M846.587 832.76L965.48 813.746" stroke="#036F11" stroke-width="1.5"/>
<path d="M846.587 832.76L925.294 932.514" stroke="#036F11" stroke-width="1.5"/>
<path d="M836.967 721.421L845.107 630.914" stroke="#036F11" stroke-width="1.5"/>
<path d="M836.967 721.421L962.28 723.754" stroke="#036F11" stroke-width="1.5"/>
<path d="M832.133 440.713L860.067 328.833" stroke="#036F11" stroke-width="1.5"/>
<path d="M832.133 440.713L952.014 500.099" stroke="#036F11" stroke-width="1.5"/>
<path d="M832.134 440.713L753.94 319.32" stroke="#036F11" stroke-width="1.5"/>
<path d="M860.067 328.833L871.447 245.013" stroke="#036F11" stroke-width="1.5"/>
<path d="M871.447 245.014L956.8 229.167" stroke="#036F11" stroke-width="1.5"/>
<path d="M871.447 245.014L947.513 140.834" stroke="#036F11" stroke-width="1.5"/>
<path d="M871.447 245.014L968.9 341.567" stroke="#036F11" stroke-width="1.5"/>
<path d="M837.914 17.0936L828.134 -58.533" stroke="#036F11" stroke-width="1.5"/>
<path d="M828.134 -58.5333L941.101 8.45337" stroke="#036F11" stroke-width="1.5"/>
<path d="M926.487 1324.15L836.66 1316.75" stroke="#036F11" stroke-width="1.5"/>
<path d="M930.06 1117.01L863.34 1241.55" stroke="#036F11" stroke-width="1.5"/>
<path d="M930.06 1117.01L826.7 1001.15" stroke="#036F11" stroke-width="1.5"/>
<path d="M925.294 932.513L826.7 1001.15" stroke="#036F11" stroke-width="1.5"/>
<path d="M968.9 341.567L860.067 328.834" stroke="#036F11" stroke-width="1.5"/>
<path d="M941.1 8.45365L837.914 17.0936" stroke="#036F11" stroke-width="1.5"/>
<path d="M340.053 92.8066C349.258 92.8066 356.72 100.268 356.72 109.473C356.72 118.678 349.258 126.14 340.053 126.14C330.849 126.14 323.387 118.678 323.387 109.473C323.387 100.268 330.849 92.8066 340.053 92.8066Z" fill="url(#paint0_radial_1_1426)"/>
<path d="M454.053 294.807C463.258 294.807 470.72 302.269 470.72 311.474C470.72 320.678 463.258 328.14 454.053 328.14C444.848 328.14 437.386 320.678 437.386 311.474C437.386 302.269 444.848 294.807 454.053 294.807Z" fill="url(#paint1_radial_1_1426)"/>
<path d="M672.113 321.573C681.318 321.573 688.78 329.035 688.78 338.24C688.78 347.445 681.318 354.906 672.113 354.906C662.909 354.906 655.447 347.445 655.447 338.24C655.447 329.035 662.909 321.573 672.113 321.573Z" fill="url(#paint2_radial_1_1426)"/>
<path d="M753.94 302.653C763.145 302.653 770.607 310.115 770.607 319.32C770.607 328.525 763.145 335.986 753.94 335.986C744.736 335.986 737.274 328.525 737.274 319.32C737.274 310.115 744.736 302.653 753.94 302.653Z" fill="url(#paint3_radial_1_1426)"/>
<path d="M867.201 1116.87C876.405 1116.87 883.867 1124.33 883.867 1133.53C883.867 1142.74 876.405 1150.2 867.201 1150.2C857.996 1150.2 850.534 1142.74 850.534 1133.53C850.534 1124.33 857.996 1116.87 867.201 1116.87Z" fill="url(#paint4_radial_1_1426)"/>
<path d="M826.7 984.486C835.905 984.486 843.367 991.948 843.367 1001.15C843.367 1010.36 835.905 1017.82 826.7 1017.82C817.496 1017.82 810.034 1010.36 810.034 1001.15C810.034 991.948 817.496 984.486 826.7 984.486Z" fill="url(#paint5_radial_1_1426)"/>
<path d="M845.107 614.247C854.312 614.247 861.774 621.709 861.774 630.914C861.774 640.119 854.312 647.581 845.107 647.581C835.903 647.581 828.441 640.119 828.441 630.914C828.441 621.709 835.903 614.247 845.107 614.247Z" fill="url(#paint6_radial_1_1426)"/>
<path d="M839.047 92.2803C848.251 92.2803 855.713 99.7422 855.713 108.947C855.713 118.152 848.251 125.614 839.047 125.614C829.842 125.614 822.38 118.152 822.38 108.947C822.38 99.7422 829.842 92.2803 839.047 92.2803Z" fill="url(#paint7_radial_1_1426)"/>
<path d="M228.393 105.054C230.234 105.054 231.727 106.546 231.727 108.387C231.727 110.228 230.234 111.72 228.393 111.72C226.552 111.72 225.06 110.228 225.06 108.387C225.06 106.546 226.552 105.054 228.393 105.054Z" fill="#049016"/>
<path d="M256.94 40.513C258.781 40.513 260.274 42.0054 260.274 43.8464C260.274 45.6873 258.781 47.1797 256.94 47.1797C255.099 47.1797 253.607 45.6873 253.607 43.8464C253.607 42.0054 255.099 40.513 256.94 40.513Z" fill="#049016"/>
<path d="M353.72 210.994C355.561 210.994 357.053 212.486 357.053 214.327C357.053 216.168 355.561 217.66 353.72 217.66C351.879 217.66 350.387 216.168 350.387 214.327C350.387 212.486 351.879 210.994 353.72 210.994Z" fill="#049016"/>
<path d="M366.38 40.2138C368.221 40.2138 369.713 41.7062 369.713 43.5472C369.713 45.3881 368.221 46.8805 366.38 46.8805C364.539 46.8805 363.047 45.3881 363.047 43.5472C363.047 41.7062 364.539 40.2138 366.38 40.2138Z" fill="#049016"/>
<path d="M474.66 223.181C476.501 223.181 477.994 224.673 477.994 226.514C477.994 228.355 476.501 229.847 474.66 229.847C472.82 229.847 471.327 228.355 471.327 226.514C471.327 224.673 472.82 223.181 474.66 223.181Z" fill="#049016"/>
<path d="M447.827 99.353C449.668 99.353 451.16 100.845 451.16 102.686C451.16 104.527 449.668 106.02 447.827 106.02C445.986 106.02 444.494 104.527 444.494 102.686C444.494 100.845 445.986 99.353 447.827 99.353Z" fill="#049016"/>
<path d="M429.56 29.0938C431.401 29.0938 432.893 30.5862 432.893 32.4272C432.893 34.2681 431.401 35.7605 429.56 35.7605C427.719 35.7605 426.227 34.2681 426.227 32.4272C426.227 30.5862 427.719 29.0938 429.56 29.0938Z" fill="#049016"/>
<path d="M564.387 396.434C566.228 396.434 567.72 397.926 567.72 399.767C567.72 401.608 566.228 403.1 564.387 403.1C562.546 403.1 561.054 401.608 561.054 399.767C561.054 397.926 562.546 396.434 564.387 396.434Z" fill="#049016"/>
<path d="M537.487 327.84C539.328 327.84 540.82 329.332 540.82 331.173C540.82 333.014 539.328 334.507 537.487 334.507C535.646 334.507 534.154 333.014 534.154 331.173C534.154 329.332 535.646 327.84 537.487 327.84Z" fill="#049016"/>
<path d="M551.006 234.174C552.847 234.174 554.34 235.666 554.34 237.507C554.34 239.348 552.847 240.841 551.006 240.841C549.166 240.841 547.673 239.348 547.673 237.507C547.673 235.666 549.166 234.174 551.006 234.174Z" fill="#049016"/>
<path d="M537.62 120.266C539.461 120.266 540.953 121.758 540.953 123.599C540.953 125.44 539.461 126.932 537.62 126.932C535.779 126.932 534.287 125.44 534.287 123.599C534.287 121.758 535.779 120.266 537.62 120.266Z" fill="#049016"/>
<path d="M544.333 41.5736C546.174 41.5736 547.667 43.066 547.667 44.9069C547.667 46.7479 546.174 48.2402 544.333 48.2402C542.493 48.2402 541 46.7479 541 44.9069C541 43.066 542.493 41.5736 544.333 41.5736Z" fill="#049016"/>
<path d="M625.854 704.187C627.695 704.187 629.187 705.679 629.187 707.52C629.187 709.361 627.695 710.854 625.854 710.854C624.013 710.854 622.52 709.361 622.52 707.52C622.52 705.679 624.013 704.187 625.854 704.187Z" fill="#049016"/>
<path d="M627.194 597.367C629.035 597.367 630.527 598.859 630.527 600.7C630.527 602.541 629.035 604.033 627.194 604.033C625.353 604.033 623.86 602.541 623.86 600.7C623.86 598.859 625.353 597.367 627.194 597.367Z" fill="#049016"/>
<path d="M674.62 526.953C676.461 526.953 677.954 528.446 677.954 530.287C677.954 532.127 676.461 533.62 674.62 533.62C672.779 533.62 671.287 532.127 671.287 530.287C671.287 528.446 672.779 526.953 674.62 526.953Z" fill="#049016"/>
<path d="M666.18 231.987C668.021 231.987 669.513 233.479 669.513 235.32C669.513 237.161 668.021 238.654 666.18 238.654C664.339 238.654 662.846 237.161 662.846 235.32C662.846 233.479 664.339 231.987 666.18 231.987Z" fill="#049016"/>
<path d="M642.727 136.754C644.568 136.754 646.06 138.246 646.06 140.087C646.06 141.928 644.568 143.421 642.727 143.421C640.886 143.421 639.393 141.928 639.393 140.087C639.393 138.246 640.886 136.754 642.727 136.754Z" fill="#049016"/>
<path d="M673.147 1.71285C674.988 1.71285 676.481 3.20523 676.481 5.04618C676.481 6.88713 674.988 8.37952 673.147 8.37952C671.306 8.37952 669.814 6.88713 669.814 5.04618C669.814 3.20523 671.306 1.71285 673.147 1.71285Z" fill="#049016"/>
<path d="M767.82 1144.31C769.661 1144.31 771.154 1145.8 771.154 1147.64C771.154 1149.48 769.661 1150.97 767.82 1150.97C765.98 1150.97 764.487 1149.48 764.487 1147.64C764.487 1145.8 765.98 1144.31 767.82 1144.31Z" fill="#049016"/>
<path d="M737 930.5C738.841 930.5 740.334 931.993 740.334 933.833C740.334 935.674 738.841 937.167 737 937.167C735.159 937.167 733.667 935.674 733.667 933.833C733.667 931.993 735.159 930.5 737 930.5Z" fill="#049016"/>
<path d="M728.473 842.973C730.314 842.973 731.807 844.466 731.807 846.307C731.807 848.148 730.314 849.64 728.473 849.64C726.633 849.64 725.14 848.148 725.14 846.307C725.14 844.466 726.633 842.973 728.473 842.973Z" fill="#049016"/>
<path d="M761.234 711.954C763.075 711.954 764.567 713.446 764.567 715.287C764.567 717.128 763.075 718.621 761.234 718.621C759.393 718.621 757.9 717.128 757.9 715.287C757.9 713.446 759.393 711.954 761.234 711.954Z" fill="#049016"/>
<path d="M766.794 609.2C768.634 609.2 770.127 610.693 770.127 612.534C770.127 614.375 768.634 615.867 766.794 615.867C764.953 615.867 763.46 614.375 763.46 612.534C763.46 610.693 764.953 609.2 766.794 609.2Z" fill="#049016"/>
<path d="M771.52 533.9C773.361 533.9 774.853 535.392 774.853 537.233C774.853 539.074 773.361 540.567 771.52 540.567C769.679 540.567 768.187 539.074 768.187 537.233C768.187 535.392 769.679 533.9 771.52 533.9Z" fill="#049016"/>
<path d="M736.82 428.126C738.661 428.126 740.154 429.618 740.154 431.459C740.154 433.3 738.661 434.793 736.82 434.793C734.979 434.793 733.487 433.3 733.487 431.459C733.487 429.618 734.979 428.126 736.82 428.126Z" fill="#049016"/>
<path d="M732.993 133.932C734.834 133.932 736.327 135.425 736.327 137.266C736.327 139.107 734.834 140.599 732.993 140.599C731.153 140.599 729.66 139.107 729.66 137.266C729.66 135.425 731.153 133.932 732.993 133.932Z" fill="#049016"/>
<path d="M840.207 1421.96C842.048 1421.96 843.541 1423.45 843.541 1425.29C843.541 1427.13 842.048 1428.63 840.207 1428.63C838.366 1428.63 836.874 1427.13 836.874 1425.29C836.874 1423.45 838.366 1421.96 840.207 1421.96Z" fill="#049016"/>
<path d="M836.66 1313.41C838.501 1313.41 839.994 1314.91 839.994 1316.75C839.994 1318.59 838.501 1320.08 836.66 1320.08C834.82 1320.08 833.327 1318.59 833.327 1316.75C833.327 1314.91 834.82 1313.41 836.66 1313.41Z" fill="#049016"/>
<path d="M863.34 1238.21C865.181 1238.21 866.674 1239.71 866.674 1241.55C866.674 1243.39 865.181 1244.88 863.34 1244.88C861.5 1244.88 860.007 1243.39 860.007 1241.55C860.007 1239.71 861.5 1238.21 863.34 1238.21Z" fill="#049016"/>
<path d="M842.98 938.327C844.821 938.327 846.313 939.819 846.313 941.66C846.313 943.501 844.821 944.993 842.98 944.993C841.139 944.993 839.647 943.501 839.647 941.66C839.647 939.819 841.139 938.327 842.98 938.327Z" fill="#049016"/>
<path d="M846.587 829.427C848.428 829.427 849.92 830.919 849.92 832.76C849.92 834.601 848.428 836.093 846.587 836.093C844.746 836.093 843.253 834.601 843.253 832.76C843.253 830.919 844.746 829.427 846.587 829.427Z" fill="#049016"/>
<path d="M836.967 718.087C838.808 718.087 840.3 719.579 840.3 721.42C840.3 723.261 838.808 724.754 836.967 724.754C835.126 724.754 833.634 723.261 833.634 721.42C833.634 719.579 835.126 718.087 836.967 718.087Z" fill="#049016"/>
<path d="M832.133 437.379C833.974 437.379 835.467 438.872 835.467 440.713C835.467 442.554 833.974 444.046 832.133 444.046C830.292 444.046 828.8 442.554 828.8 440.713C828.8 438.872 830.292 437.379 832.133 437.379Z" fill="#049016"/>
<path d="M860.067 325.5C861.908 325.5 863.4 326.993 863.4 328.834C863.4 330.675 861.908 332.167 860.067 332.167C858.226 332.167 856.733 330.675 856.733 328.834C856.733 326.993 858.226 325.5 860.067 325.5Z" fill="#049016"/>
<path d="M871.447 241.68C873.288 241.68 874.781 243.172 874.781 245.013C874.781 246.854 873.288 248.346 871.447 248.346C869.606 248.346 868.114 246.854 868.114 245.013C868.114 243.172 869.606 241.68 871.447 241.68Z" fill="#049016"/>
<path d="M837.913 13.7598C839.754 13.7598 841.247 15.2522 841.247 17.0932C841.247 18.9341 839.754 20.4265 837.913 20.4265C836.072 20.4265 834.58 18.9341 834.58 17.0932C834.58 15.2522 836.072 13.7598 837.913 13.7598Z" fill="#049016"/>
</g>
</g>
<defs>
<radialGradient id="paint0_radial_1_1426" cx="0" cy="0" r="1" gradientUnits="userSpaceOnUse" gradientTransform="translate(340.053 109.473) scale(16.6667 16.6667)">
<stop offset="0.1" stop-color="white"/>
<stop offset="0.2" stop-color="#036F11"/>
<stop offset="1" stop-color="#036F11" stop-opacity="0"/>
</radialGradient>
<radialGradient id="paint1_radial_1_1426" cx="0" cy="0" r="1" gradientUnits="userSpaceOnUse" gradientTransform="translate(454.053 311.474) scale(16.6667 16.6667)">
<stop offset="0.1" stop-color="white"/>
<stop offset="0.2" stop-color="#036F11"/>
<stop offset="1" stop-color="#036F11" stop-opacity="0"/>
</radialGradient>
<radialGradient id="paint2_radial_1_1426" cx="0" cy="0" r="1" gradientUnits="userSpaceOnUse" gradientTransform="translate(672.113 338.24) scale(16.6667 16.6667)">
<stop offset="0.1" stop-color="white"/>
<stop offset="0.2" stop-color="#036F11"/>
<stop offset="1" stop-color="#036F11" stop-opacity="0"/>
</radialGradient>
<radialGradient id="paint3_radial_1_1426" cx="0" cy="0" r="1" gradientUnits="userSpaceOnUse" gradientTransform="translate(753.94 319.32) scale(16.6667 16.6667)">
<stop offset="0.1" stop-color="white"/>
<stop offset="0.2" stop-color="#036F11"/>
<stop offset="1" stop-color="#036F11" stop-opacity="0"/>
</radialGradient>
<radialGradient id="paint4_radial_1_1426" cx="0" cy="0" r="1" gradientUnits="userSpaceOnUse" gradientTransform="translate(867.201 1133.53) scale(16.6667 16.6667)">
<stop offset="0.1" stop-color="white"/>
<stop offset="0.2" stop-color="#036F11"/>
<stop offset="1" stop-color="#036F11" stop-opacity="0"/>
</radialGradient>
<radialGradient id="paint5_radial_1_1426" cx="0" cy="0" r="1" gradientUnits="userSpaceOnUse" gradientTransform="translate(826.7 1001.15) scale(16.6667 16.6667)">
<stop offset="0.1" stop-color="white"/>
<stop offset="0.2" stop-color="#036F11"/>
<stop offset="1" stop-color="#036F11" stop-opacity="0"/>
</radialGradient>
<radialGradient id="paint6_radial_1_1426" cx="0" cy="0" r="1" gradientUnits="userSpaceOnUse" gradientTransform="translate(845.107 630.914) scale(16.6667 16.6667)">
<stop offset="0.1" stop-color="white"/>
<stop offset="0.2" stop-color="#036F11"/>
<stop offset="1" stop-color="#036F11" stop-opacity="0"/>
</radialGradient>
<radialGradient id="paint7_radial_1_1426" cx="0" cy="0" r="1" gradientUnits="userSpaceOnUse" gradientTransform="translate(839.047 108.947) scale(16.6667 16.6667)">
<stop offset="0.1" stop-color="white"/>
<stop offset="0.2" stop-color="#036F11"/>
<stop offset="1" stop-color="#036F11" stop-opacity="0"/>
</radialGradient>
<clipPath id="clip0_1_1426">
<rect width="960" height="2000" fill="white" transform="matrix(1 -4.52458e-09 -4.52458e-09 -1 0 1673)"/>
</clipPath>
</defs>
</svg>
